<svg viewBox="0 0 24 24" xmlns="http://www.w3.org/2000/svg"><g display="inline"><path d="m3.316 466.863-1.309 4.447a1 1 0 0 0 1.23 1.245l4.468-1.264c3.778 1.893 8.364 1.24 11.378-1.776 3.844-3.845 3.844-10.11 0-13.954-3.845-3.845-10.411-3.541-13.83-.123-3.418 3.418-3.783 7.66-1.937 11.425zm14.352 1.238a7.857 7.857 0 0 1-9.449 1.279 1 1 0 0 0-.765-.094l-3.018.852.884-3a1 1 0 0 0-.084-.769c-1.714-3.076-1.377-6.708 1.408-9.493s7.944-2.982 11.024.099a7.853 7.853 0 0 1 0 11.126z" style="line-height:normal;font-variant-ligatures:normal;font-variant-position:normal;font-variant-caps:normal;font-variant-numeric:normal;font-variant-alternates:normal;font-variant-east-asian:normal;font-feature-settings:normal;font-variation-settings:normal;text-indent:0;text-align:start;text-decoration-line:none;text-decoration-style:solid;text-decoration-color:#000;text-transform:none;text-orientation:mixed;white-space:normal;shape-padding:0;shape-margin:0;inline-size:0;isolation:auto;mix-blend-mode:normal;solid-color:#000;solid-opacity:1" transform="translate(.034 -450.684)" color="#000000" font-style="normal" font-variant="normal" font-weight="400" font-stretch="normal" font-size="medium" font-family="sans-serif" text-decoration="none" letter-spacing="normal" word-spacing="normal" writing-mode="lr-tb" direction="ltr" dominant-baseline="auto" baseline-shift="baseline" text-anchor="start" clip-rule="nonzero" display="inline" overflow="visible" visibility="visible" opacity="1" color-interpolation="sRGB" color-interpolation-filters="linearRGB" vector-effect="none" fill="#4a4e55" fill-opacity="1" fill-rule="nonzero" stroke="none" stroke-linecap="round" stroke-linejoin="round" stroke-miterlimit="4" stroke-dasharray="none" stroke-dashoffset="0" stroke-opacity="1" color-rendering="auto" image-rendering="auto" shape-rendering="auto" text-rendering="auto" enable-background="accumulate" stop-color="#4a4e55" stop-opacity="1" class="fill-000000 stop-color-000000"></path></g></svg>